<svg width="512" height="512" viewBox="0 0 512 512" fill="none" xmlns="http://www.w3.org/2000/svg">
  <!-- Background circle -->
  <circle cx="256" cy="256" r="256" fill="url(#gradient)"/>
  
  <!-- Sun rays -->
  <g opacity="0.9">
    <rect x="240" y="80" width="32" height="60" rx="16" fill="#FCD34D"/>
    <rect x="240" y="372" width="32" height="60" rx="16" fill="#FCD34D"/>
    <rect x="80" y="240" width="60" height="32" rx="16" fill="#FCD34D"/>
    <rect x="372" y="240" width="60" height="32" rx="16" fill="#FCD34D"/>
    
    <rect x="152" y="152" width="32" height="60" rx="16" transform="rotate(-45 168 182)" fill="#FCD34D"/>
    <rect x="328" y="328" width="32" height="60" rx="16" transform="rotate(-45 344 358)" fill="#FCD34D"/>
    <rect x="152" y="328" width="60" height="32" rx="16" transform="rotate(-45 182 344)" fill="#FCD34D"/>
    <rect x="300" y="152" width="60" height="32" rx="16" transform="rotate(-45 330 168)" fill="#FCD34D"/>
  </g>
  
  <!-- Sun circle -->
  <circle cx="256" cy="256" r="80" fill="#FBBF24"/>
  
  <!-- 5 AM Text -->
  <text x="256" y="280" font-family="Arial, sans-serif" font-size="64" font-weight="bold" fill="#7C3AED" text-anchor="middle">5AM</text>
  
  <!-- Gradient definition -->
  <defs>
    <linearGradient id="gradient" x1="0%" y1="0%" x2="100%" y2="100%">
      <stop offset="0%" style="stop-color:#4F46E5;stop-opacity:1" />
      <stop offset="100%" style="stop-color:#7C3AED;stop-opacity:1" />
    </linearGradient>
  </defs>
</svg>
